<svg width="461" height="526" viewBox="0 0 461 526" fill="none" xmlns="http://www.w3.org/2000/svg">
<g filter="url(#filter0_d_1020_3567)">
<rect x="171.387" y="24" width="280" height="394" rx="20" transform="rotate(21.1854 171.387 24)" fill="#F2F2F2"/>
<rect x="171.672" y="24.6469" width="279" height="393" rx="19.5" transform="rotate(21.1854 171.672 24.6469)" stroke="#D2D2D2"/>
</g>
<path d="M204.917 130.905L214.863 147.831L205.664 151.136L195.937 134.295L204.917 130.905ZM227.34 116.722L226.365 119.235C224.803 123.265 222.855 126.672 220.52 129.453C218.209 132.244 215.608 134.379 212.718 135.856C209.837 137.308 206.793 138.098 203.588 138.224C200.384 138.351 197.106 137.764 193.755 136.466C190.428 135.176 187.611 133.4 185.304 131.138C182.997 128.875 181.269 126.236 180.12 123.221C178.979 120.182 178.472 116.843 178.597 113.205C178.747 109.576 179.603 105.747 181.165 101.716L182.139 99.2027C183.711 95.1477 185.659 91.7415 187.985 88.9841C190.344 86.2118 192.957 84.0824 195.823 82.5959C198.69 81.1095 201.737 80.3078 204.967 80.1908C208.196 80.0739 211.474 80.6601 214.8 81.9494C218.151 83.2482 220.968 85.0242 223.251 87.2774C225.558 89.5401 227.281 92.1911 228.421 95.2304C229.562 98.2697 230.057 101.604 229.907 105.232C229.767 108.837 228.911 112.667 227.34 116.722ZM215.329 114.957L216.332 112.371C217.423 109.555 218.116 106.974 218.41 104.631C218.729 102.296 218.672 100.208 218.241 98.3648C217.835 96.5315 217.056 94.973 215.906 93.6892C214.765 92.3813 213.272 91.3696 211.427 90.6544C209.581 89.9391 207.796 89.6803 206.072 89.8777C204.357 90.0509 202.732 90.6778 201.196 91.7582C199.66 92.8387 198.223 94.3485 196.885 96.2876C195.546 98.2268 194.332 100.605 193.24 103.421L192.238 106.007C191.155 108.8 190.45 111.375 190.123 113.734C189.804 116.068 189.844 118.164 190.241 120.022C190.672 121.865 191.458 123.44 192.599 124.748C193.764 126.066 195.269 127.082 197.115 127.797C198.96 128.512 200.733 128.767 202.433 128.56C204.157 128.362 205.787 127.723 207.323 126.643C208.893 125.547 210.347 124.03 211.685 122.091C213.032 120.128 214.247 117.75 215.329 114.957Z" fill="#F24822"/>
<path fill-rule="evenodd" clip-rule="evenodd" d="M193.361 173.014C183.334 169.304 176.955 179.884 176.955 179.884C176.955 179.884 179.053 167.645 169.145 163.629C159.237 159.612 149.715 165.975 149.523 176.484C149.33 186.992 151.889 190.365 154.6 199.088C157.311 207.811 160.545 222.337 159.451 225.044C160.468 222.307 172.327 213.631 180.209 209.013C188.091 204.396 192.255 203.628 199.194 195.735C206.134 187.842 203.388 176.724 193.361 173.014Z" fill="#F24822"/>
<defs>
<filter id="filter0_d_1020_3567" x="0.870667" y="0.870697" width="459.722" height="524.819" filterUnits="userSpaceOnUse" color-interpolation-filters="sRGB">
<feFlood flood-opacity="0" result="BackgroundImageFix"/>
<feColorMatrix in="SourceAlpha" type="matrix" values="0 0 0 0 0 0 0 0 0 0 0 0 0 0 0 0 0 0 127 0" result="hardAlpha"/>
<feOffset dy="5"/>
<feGaussianBlur stdDeviation="17"/>
<feColorMatrix type="matrix" values="0 0 0 0 0 0 0 0 0 0 0 0 0 0 0 0 0 0 0.1 0"/>
<feBlend mode="normal" in2="BackgroundImageFix" result="effect1_dropShadow_1020_3567"/>
<feBlend mode="normal" in="SourceGraphic" in2="effect1_dropShadow_1020_3567" result="shape"/>
</filter>
</defs>
</svg>
