<svg width="460" height="526" viewBox="0 0 460 526" fill="none" xmlns="http://www.w3.org/2000/svg">
<g filter="url(#filter0_d_1120_3432)">
<rect x="170.674" y="23.7151" width="280" height="394" rx="20" transform="rotate(21.19 170.674 23.7151)" fill="#F2F2F2"/>
<rect x="170.959" y="24.3621" width="279" height="393" rx="19.5" transform="rotate(21.19 170.959 24.3621)" stroke="#D2D2D2"/>
</g>
<path d="M204.196 130.623L214.14 147.55L204.941 150.854L195.215 134.012L204.196 130.623ZM226.619 116.441L225.645 118.954C224.082 122.985 222.134 126.391 219.798 129.172C217.488 131.963 214.887 134.097 211.996 135.574C209.115 137.027 206.072 137.816 202.867 137.942C199.662 138.068 196.384 137.482 193.033 136.183C189.706 134.893 186.89 133.117 184.583 130.854C182.276 128.591 180.548 125.952 179.399 122.937C178.259 119.898 177.752 116.559 177.877 112.921C178.027 109.292 178.884 105.462 180.446 101.432L181.42 98.9187C182.992 94.8638 184.941 91.4578 187.267 88.7006C189.626 85.9285 192.239 83.7993 195.106 82.3131C197.972 80.8268 201.02 80.0253 204.249 79.9087C207.479 79.792 210.756 80.3785 214.083 81.668C217.434 82.967 220.25 84.7433 222.533 86.9967C224.84 89.2596 226.563 91.9107 227.703 94.9501C228.843 97.9895 229.338 101.324 229.188 104.952C229.047 108.557 228.191 112.386 226.619 116.441ZM214.609 114.676L215.612 112.09C216.704 109.274 217.397 106.693 217.691 104.349C218.009 102.015 217.953 99.9265 217.523 98.0837C217.116 96.2503 216.338 94.6918 215.188 93.408C214.047 92.0999 212.554 91.0881 210.708 90.3727C208.863 89.6574 207.078 89.3983 205.354 89.5957C203.639 89.7687 202.013 90.3954 200.477 91.4757C198.941 92.5561 197.504 94.0658 196.166 96.0048C194.828 97.9439 193.613 100.322 192.521 103.138L191.518 105.724C190.436 108.516 189.73 111.092 189.403 113.451C189.084 115.785 189.123 117.881 189.521 119.739C189.951 121.582 190.737 123.157 191.878 124.465C193.043 125.783 194.548 126.799 196.393 127.514C198.239 128.23 200.011 128.484 201.712 128.277C203.436 128.08 205.066 127.441 206.602 126.361C208.172 125.266 209.626 123.748 210.964 121.809C212.312 119.846 213.527 117.468 214.609 114.676Z" fill="black"/>
<path fill-rule="evenodd" clip-rule="evenodd" d="M178.664 211.269C188.209 215.112 196.847 210.341 196.482 201.652C196.116 192.963 193.528 190.037 190.521 182.674C187.511 175.311 183.711 163.118 184.598 160.933C183.783 163.146 173.063 169.709 165.876 173.12C158.692 176.532 154.811 176.95 148.682 183.121C142.555 189.293 145.722 198.641 155.361 202.235C161.979 204.703 166.626 201.507 168.888 199.259L167.51 202.814C167.51 202.814 160.436 214.822 145.056 210.474L142.691 209.557L141.916 211.556L182.316 227.217L183.09 225.219L180.723 224.301C166.433 217.147 169.299 203.508 169.299 203.508L170.497 200.42C170.866 203.691 172.476 208.777 178.664 211.269Z" fill="#1A1919"/>
<defs>
<filter id="filter0_d_1120_3432" x="0.129456" y="0.586731" width="459.741" height="524.827" filterUnits="userSpaceOnUse" color-interpolation-filters="sRGB">
<feFlood flood-opacity="0" result="BackgroundImageFix"/>
<feColorMatrix in="SourceAlpha" type="matrix" values="0 0 0 0 0 0 0 0 0 0 0 0 0 0 0 0 0 0 127 0" result="hardAlpha"/>
<feOffset dy="5"/>
<feGaussianBlur stdDeviation="17"/>
<feColorMatrix type="matrix" values="0 0 0 0 0 0 0 0 0 0 0 0 0 0 0 0 0 0 0.1 0"/>
<feBlend mode="normal" in2="BackgroundImageFix" result="effect1_dropShadow_1120_3432"/>
<feBlend mode="normal" in="SourceGraphic" in2="effect1_dropShadow_1120_3432" result="shape"/>
</filter>
</defs>
</svg>
